<svg xmlns="http://www.w3.org/2000/svg" xmlns:xlink="http://www.w3.org/1999/xlink" width="1548" height="485" viewBox="0 0 1548 485"><defs><clipPath id="a"><rect width="1548" height="485" transform="translate(-14.125 -9.635)" fill="#fff" stroke="#707070" stroke-width="1"/></clipPath></defs><g transform="translate(14.125 9.635)"><g clip-path="url(#a)"><g transform="translate(-0.125 5.365)"><path d="M1408.86,0H94.72C91.27,0,87.87.11,84.4.17a148.64,148.64,0,0,0-22.5,2,75.47,75.47,0,0,0-21.32,7A72.1,72.1,0,0,0,22.41,22.41,70.43,70.43,0,0,0,9.19,40.6,74.21,74.21,0,0,0,2.18,62a144.913,144.913,0,0,0-2,22.47C.07,87.87.06,91.32,0,94.76V360c.06,3.49.07,6.86.17,10.35a144.78,144.78,0,0,0,2,22.46,73.87,73.87,0,0,0,7,21.37A69.91,69.91,0,0,0,22.39,432.3a70.39,70.39,0,0,0,18.17,13.22,74.93,74.93,0,0,0,21.32,7.08,150,150,0,0,0,22.5,2c3.47.08,6.87.13,10.31.13H1421.03c3.41,0,6.92-.05,10.33-.13a147.6,147.6,0,0,0,22.45-2,76,76,0,0,0,21.42-7.08,70.63,70.63,0,0,0,18.15-13.22,72,72,0,0,0,13.26-18.12,74.363,74.363,0,0,0,6.95-21.37,151.278,151.278,0,0,0,2.07-22.46V360c.09-4.08.09-8.13.09-12.27V107c0-4.12,0-8.19-.09-12.26V84.41A151.417,151.417,0,0,0,1513.59,62a74.7,74.7,0,0,0-6.95-21.36,72.59,72.59,0,0,0-31.41-31.42,76.523,76.523,0,0,0-21.42-7,146.328,146.328,0,0,0-22.45-2C1428,.11,1424.44,0,1421,0h-12.17" fill="#231815"/><path d="M94.77,444.92c-3.42,0-6.76,0-10.15-.12a142.06,142.06,0,0,1-21-1.83,66,66,0,0,1-18.58-6.15,60.4,60.4,0,0,1-15.68-11.41A59.518,59.518,0,0,1,17.9,409.74a64.23,64.23,0,0,1-6.09-18.6,139.539,139.539,0,0,1-1.87-21c-.07-2.37-.17-10.24-.17-10.24V94.77s.1-7.77.17-10a139.149,139.149,0,0,1,1.86-21,64.79,64.79,0,0,1,6.09-18.64,60.5,60.5,0,0,1,11.4-15.69A62.26,62.26,0,0,1,45.05,17.9,65.88,65.88,0,0,1,63.6,11.79,141.93,141.93,0,0,1,84.65,10l10.12-.13H1421l10.25.14a137.813,137.813,0,0,1,20.85,1.83,66.7,66.7,0,0,1,18.75,6.14,62,62,0,0,1,15.62,11.4,63,63,0,0,1,11.49,15.76,64.5,64.5,0,0,1,6,18.51,143.35,143.35,0,0,1,2,21.17v10c.09,4.2.09,8.21.09,12.24V347.74c0,4.07,0,8.05-.09,12.06v10.44A142.014,142.014,0,0,1,1504,391a64.57,64.57,0,0,1-6,18.74,61.76,61.76,0,0,1-11.41,15.55,60.829,60.829,0,0,1-15.7,11.47,65.723,65.723,0,0,1-18.72,6.17,140.456,140.456,0,0,1-21,1.83c-3.29.08-6.74.12-10.07.12h-12.17Z" fill="#fff"/><path d="M562.18,307.34h-52.6L496.7,342.53H473.57l51.52-131.42H547l52.69,131.42H575.33Zm-46-17.87h39.27l-14.06-37.64q-2.89-7.79-5.71-17.23-2.55,8.35-5.53,17.05Z" fill="#231815"/><path d="M610.08,268.61q0-10.89-.73-23.94h21A105.1,105.1,0,0,1,632,257.09q13.07-14.23,29.93-14.23a34.93,34.93,0,0,1,18.13,4.93q8.35,5,13.49,15.6t5.12,27.08q0,17.14-5.86,29.3a41.78,41.78,0,0,1-16.36,18.4,46.67,46.67,0,0,1-24.32,6.26,60,60,0,0,1-19.67-3.35v40.45l-22.4,1.91Zm58.9,50q6.85-9.21,6.84-26.89,0-16.41-5.66-23.81a18.07,18.07,0,0,0-15.1-7.39,24.37,24.37,0,0,0-12.06,3.1,45.316,45.316,0,0,0-10.52,8.26V324.3a33.583,33.583,0,0,0,7.79,2.58,41.567,41.567,0,0,0,8.8.95q13.06,0,19.91-9.2" fill="#231815"/><path d="M713,268.61q0-10.89-.73-23.94h21A107.231,107.231,0,0,1,735,257.09q13-14.23,29.9-14.23a35,35,0,0,1,18.1,4.93q8.36,5,13.49,15.6t5.12,27.08q0,17.14-5.86,29.3a41.839,41.839,0,0,1-16.36,18.4,46.69,46.69,0,0,1-24.32,6.26,60,60,0,0,1-19.67-3.35v40.45L713,383.44Zm58.9,50q6.86-9.21,6.84-26.89,0-16.41-5.66-23.81a18.08,18.08,0,0,0-15.1-7.39,24.37,24.37,0,0,0-11.98,3.1,45.319,45.319,0,0,0-10.52,8.26V324.3a33.58,33.58,0,0,0,7.79,2.58,41.57,41.57,0,0,0,8.8.95q13.07,0,19.91-9.2" fill="#231815"/><path d="M843.9,336.32a54.38,54.38,0,0,1-22.32-23q-7.8-15-7.8-35.37,0-22.11,9-37.59a57.72,57.72,0,0,1,24.45-23.21q15.45-7.77,34.69-7.76a91.6,91.6,0,0,1,21.62,2.49,93.821,93.821,0,0,1,19.2,6.85L917,236q-17.87-8.52-34.1-8.52-13.7,0-24,5.84a39.88,39.88,0,0,0-16,17.19q-5.71,11.34-5.72,27.4a65.92,65.92,0,0,0,4.41,24.93A36.791,36.791,0,0,0,855.46,320q9.48,6.34,23.89,6.34a78.956,78.956,0,0,0,13.054-1.088,67.87,67.87,0,0,0,12.256-3.172V295.55H874.29V278.14h52.13v55.32a115.855,115.855,0,0,1-23.62,8.07,110.519,110.519,0,0,1-24.62,2.81q-19.77,0-34.28-8" fill="#231815"/><path d="M1007.15,342.53a86.492,86.492,0,0,1-1.54-13A43.261,43.261,0,0,1,992.14,340a40.081,40.081,0,0,1-18.73,4.31A35.36,35.36,0,0,1,958,341a25.5,25.5,0,0,1-11-10q-4.08-6.65-4.08-16.27,0-14.25,10.24-22.72t34.2-8.48a125,125,0,0,1,17.77,1.26v-1.9q0-13-5.53-18.27t-15.87-5.31a61.544,61.544,0,0,0-15.32,2.09,79.618,79.618,0,0,0-14.33,5l-3.54-16.33a85.78,85.78,0,0,1,15.78-5A91.53,91.53,0,0,1,987,242.85q12.69,0,21.58,3.86a28.33,28.33,0,0,1,13.9,13.29q5,9.38,5,25.26v38.9q0,6.09.72,18.42Zm-13.42-18.14a35.7,35.7,0,0,0,11.42-8.34V297.91a142.545,142.545,0,0,0-15-1q-13.87,0-19.19,4.49a15.06,15.06,0,0,0-5.29,12.1q0,7.26,3.85,10.76T980,327.75a31.459,31.459,0,0,0,13.7-3.36" fill="#231815"/><path d="M1047.06,319V203.41l22.31-1.82V315q0,6.27,2.13,8.85t6.76,2.59a25.49,25.49,0,0,0,5.9-1l2.63,16.06a39,39,0,0,1-7.76,2,52.6,52.6,0,0,1-8.66.76q-23.3,0-23.31-25.3" fill="#231815"/><path d="M1102.85,319V203.41l22.3-1.82V315q0,6.27,2.14,8.85t6.75,2.59a25.491,25.491,0,0,0,5.9-1l2.63,16.06a38.922,38.922,0,0,1-7.77,2,52.4,52.4,0,0,1-8.65.76q-23.3,0-23.3-25.3" fill="#231815"/><path d="M1235.44,296.46h-64q1.54,30.74,29.29,30.75a61.48,61.48,0,0,0,14.11-1.69,84.681,84.681,0,0,0,13.83-4.49l4.9,15.33q-16.43,8-36.91,8-15.62,0-26.31-5.89a37.91,37.91,0,0,1-16.1-17q-5.38-11.06-5.39-26.67,0-16.23,5.71-27.94A41.56,41.56,0,0,1,1170.46,249a44.61,44.61,0,0,1,23.53-6.17q13.89,0,23.19,6.49a38.74,38.74,0,0,1,13.82,17.3,61.352,61.352,0,0,1,4.49,23.85Zm-21.85-14.24q-.63-11.7-5.9-17.55c-3.5-3.9-8.2-5.85-14.06-5.85a18.83,18.83,0,0,0-14.19,5.89q-5.67,5.9-7.39,17.51Z" fill="#231815"/><path d="M1253.5,269.25q0-8.08-.73-24.59h21c.37,2.73.71,6,1,9.76s.55,6.84.67,9.2a82.175,82.175,0,0,1,7.66-10.83,31.072,31.072,0,0,1,8.81-7.17,23.409,23.409,0,0,1,11.46-2.76,32.131,32.131,0,0,1,8.89,1.08l-2.8,19.41a24.731,24.731,0,0,0-7.27-1,23.79,23.79,0,0,0-13.78,4q-5.9,4-12.61,13.29v62.85h-22.3Z" fill="#231815"/><path d="M1325.7,382.57a54.789,54.789,0,0,1-8.07-1.95l4.07-16.32q2.28.63,5.72,1.22a38.069,38.069,0,0,0,6.53.59q14.88,0,22.31-19.14l1.45-3.63-36.09-98.67h24l18.15,55.14a177.666,177.666,0,0,1,5.7,21.68q2.55-10.62,6-21.23l18.4-55.59h22.59l-36,99.12q-5.07,14.07-11,22.69a38.412,38.412,0,0,1-13.91,12.78q-8,4.17-19.37,4.17a61.222,61.222,0,0,1-10.52-.86" fill="#231815"/><path d="M473.46,83.28h40.4l-1.13,9.76H485.31v18.89h25.85v9.15H485.31v20.93H514.2l-1.01,9.84H473.46Z" fill="#231815"/><path d="M541.71,116.86,520.39,83.28h13.46l14.44,24.68L563.5,83.28h13.07l-21.12,33.15,22.86,35.43H564.68l-16.34-26.99-16.62,26.99H518.64Z" fill="#231815"/><path d="M587,83.28h18.47q13,0,19.93,5.31t6.92,15.34a22.42,22.42,0,0,1-3.1,11.91,20.46,20.46,0,0,1-8.64,7.82,28.66,28.66,0,0,1-12.75,2.72,49.79,49.79,0,0,1-9-.95v26.42H587Zm29.69,30.62c2.53-2.29,3.78-5.52,3.78-9.69s-1.28-7.27-3.85-9.15-6.36-2.78-11.34-2.78h-6.44v24.34a47.173,47.173,0,0,0,6.82.71q7.24,0,11-3.43" fill="#231815"/><path d="M644.06,83.28h11.83v58.44h28.37l-.99,10.13H644.06Z" fill="#231815"/><path d="M702.26,148.5a28.68,28.68,0,0,1-11.51-12.11,39.321,39.321,0,0,1-4-18.11,40.389,40.389,0,0,1,4.24-19,29.82,29.82,0,0,1,12.22-12.55,38.261,38.261,0,0,1,18.83-4.43q10.37,0,17.85,4.29a28.21,28.21,0,0,1,11.42,12,39.36,39.36,0,0,1,3.92,18A40.62,40.62,0,0,1,751,135.85a29.941,29.941,0,0,1-12.22,12.55,37.82,37.82,0,0,1-18.63,4.41,35.38,35.38,0,0,1-17.86-4.31M733,140.09a20.21,20.21,0,0,0,7.44-9.19,34.25,34.25,0,0,0,2.47-13.38,37,37,0,0,0-2.19-13.17,19.57,19.57,0,0,0-7-9.21q-4.79-3.44-12.32-3.43a21,21,0,0,0-12.22,3.48,21.34,21.34,0,0,0-7.52,9.32,32.53,32.53,0,0,0-2.52,12.91,35.289,35.289,0,0,0,2.38,13.31,20.249,20.249,0,0,0,7.24,9.29,20.61,20.61,0,0,0,12.08,3.41A21.27,21.27,0,0,0,733,140.09" fill="#231815"/><path d="M768.47,83.28h21.46q11.73,0,17.79,4.69t6,13.4a20.33,20.33,0,0,1-2.18,9.59,21.12,21.12,0,0,1-5.4,6.74,24.049,24.049,0,0,1-6.63,3.9l21.09,30.25H806.88L789,124.67h-8.71v27.18H768.47ZM787,115.72a16.6,16.6,0,0,0,7.62-1.68,12.55,12.55,0,0,0,5.17-4.74,13.38,13.38,0,0,0,1.84-7.07q0-5.17-3.26-7.56c-2.18-1.6-5.35-2.39-9.52-2.39h-8.58v23.44Z" fill="#231815"/><path d="M830,83.28h40.39l-1.14,9.76H841.84v18.89H867.7v9.15H841.84v20.93h28.89l-1,9.84H830Z" fill="#231815"/><rect width="11.84" height="68.57" transform="translate(914.34 83.28)" fill="#231815"/><path d="M957.5,93.18H936.23l1.03-9.9h53.39l-1.1,9.9H969.33v58.68H957.5Z" fill="#231815"/><path d="M1042,148.5a28.65,28.65,0,0,1-11.5-12.11,39.319,39.319,0,0,1-4-18.11,40.389,40.389,0,0,1,4.25-19A29.759,29.759,0,0,1,1043,86.76a38.2,38.2,0,0,1,18.82-4.43q10.38,0,17.85,4.29a28.191,28.191,0,0,1,11.41,12,39.241,39.241,0,0,1,3.94,18,40.621,40.621,0,0,1-4.29,19.18,29.939,29.939,0,0,1-12.22,12.55,37.82,37.82,0,0,1-18.63,4.41A35.43,35.43,0,0,1,1042,148.5m30.69-8.41a20.28,20.28,0,0,0,7.44-9.19,34.26,34.26,0,0,0,2.46-13.38,37.192,37.192,0,0,0-2.17-13.17,19.59,19.59,0,0,0-7-9.21q-4.79-3.44-12.32-3.43a21,21,0,0,0-12.22,3.48,21.32,21.32,0,0,0-7.51,9.32,32.181,32.181,0,0,0-2.52,12.91,35.289,35.289,0,0,0,2.37,13.31,20.38,20.38,0,0,0,7.24,9.29,20.61,20.61,0,0,0,12.08,3.41,21.29,21.29,0,0,0,12.12-3.34" fill="#231815"/><path d="M1108.23,83.28h13.6l33.91,53.14q-.42-7.57-.42-14V83.28h11v68.57h-13.17l-34.42-54q.51,9.18.51,16.28v37.7h-11Z" fill="#231815"/><path d="M307.21,82.73H180.71c-59.6,0-81.4,21.79-81.4,81.39v126.5c0,59.59,21.8,81.4,81.4,81.4H307.17c59.59,0,81.43-21.81,81.43-81.4V164.12c0-59.6-21.81-81.39-81.4-81.39" fill="#c8102e" fill-rule="evenodd"/><path d="M156.6,227.39h7.67v37.82H156.6V249.86H139.27v15.35h-7.68V227.39h7.68v15.26H156.6ZM199.83,249c0,6.16-3.06,9.44-8.6,9.44s-8.65-3.38-8.65-9.7V227.42h-7.67V249c0,10.64,5.91,16.74,16.22,16.74s16.37-6.21,16.37-17V227.39h-7.67Zm88.68,4.36-8.59-26h-6.26l-8.58,26-8.36-26h-8.17l13.19,37.8h6.35l8.59-24.83,8.61,24.83h6.4l13.16-37.8h-8Zm30.09-4.46h14v-6.88h-14v-7.75h20.26v-6.89H311v37.77h28.56V258.3h-21Zm30.14,16.22h7.58V227.39h-7.58Zm-126.07-7.85-3.44,7.88h-7.84l16.67-37.8h6.76l16.6,37.8h-8l-3.4-7.88Zm2.85-6.81h11.6L231.29,237Z" fill="#fff"/><path d="M244,179.24a48.21,48.21,0,0,1-48.15-48.15h6.81a41.35,41.35,0,1,0,82.7,0h6.8A48.21,48.21,0,0,1,244,179.24" fill="#fff"/></g></g></g></svg>